<?xml version="1.0" encoding="UTF-8"?><svg id="b" xmlns="http://www.w3.org/2000/svg" viewBox="0 0 200 200"><g id="c"><g id="d"><path id="e" d="M100,0C44.77,0,0,44.77,0,100s44.77,100,100,100,100-44.77,100-100S155.23,0,100,0Zm0,184c-46.32,0-84-37.68-84-84S53.68,16,100,16s84,37.68,84,84-37.68,84-84,84Z" style="fill:#9d4eba; opacity:.6;"/><path d="M150.71,100.08c8.1,0,14.69-6.59,14.69-14.69s-6.59-14.69-14.69-14.69c-7.68,0-14.01,5.93-14.64,13.45l-14.38,2.74c-1.19-3.26-3.1-6.25-5.63-8.78-3.08-3.08-6.85-5.23-10.96-6.31l.87-9.19c8.63-1.14,15.31-8.54,15.31-17.48,0-9.72-7.91-17.63-17.63-17.63s-17.63,7.91-17.63,17.63c0,7.79,5.07,14.41,12.09,16.74l-.87,9.2c-5.84,.4-11.27,2.86-15.45,7.04-.65,.65-1.26,1.33-1.82,2.04l-15.27-8.52c.3-1.2,.47-2.45,.47-3.75,0-8.43-6.86-15.28-15.28-15.28s-15.28,6.86-15.28,15.28,6.86,15.28,15.28,15.28c4.3,0,8.18-1.78,10.96-4.65l15.27,8.52c-.93,2.6-1.42,5.37-1.42,8.21,0,3.43,.71,6.74,2.05,9.79l-11.64,7.61c-3.18-3.06-7.5-4.94-12.25-4.94-9.74,0-17.67,7.93-17.67,17.67s7.93,17.67,17.67,17.67,17.67-7.93,17.67-17.67c0-2.15-.39-4.21-1.09-6.12l11.64-7.61c.23,.25,.47,.5,.71,.75,4.58,4.58,10.66,7.1,17.14,7.1,4.88,0,9.54-1.43,13.5-4.1l15.26,16.25c-1.9,2.82-3,6.2-3,9.85,0,9.74,7.93,17.67,17.67,17.67s17.67-7.93,17.67-17.67-7.93-17.67-17.67-17.67c-3.25,0-6.29,.88-8.91,2.42l-15.26-16.25c3.23-4.21,4.98-9.33,4.98-14.73,0-.2,0-.39,0-.59l14.39-2.74c2.41,4.83,7.4,8.16,13.16,8.16Zm-100.83-24.82c-4.07,0-7.39-3.31-7.39-7.39s3.31-7.39,7.39-7.39,7.39,3.31,7.39,7.39-3.31,7.39-7.39,7.39Zm2.98,59.88c-5.39,0-9.77-4.38-9.77-9.77s4.38-9.77,9.77-9.77,9.77,4.38,9.77,9.77-4.38,9.77-9.77,9.77ZM93.93,45.13c0-5.37,4.37-9.73,9.73-9.73s9.73,4.37,9.73,9.73-4.37,9.73-9.73,9.73-9.73-4.37-9.73-9.73Zm-11.33,50.11c0-9.01,7.33-16.34,16.34-16.34s16.34,7.33,16.34,16.34-7.33,16.34-16.34,16.34-16.34-7.33-16.34-16.34Zm69.53,46.23c0,5.39-4.38,9.77-9.77,9.77s-9.77-4.38-9.77-9.77,4.38-9.77,9.77-9.77,9.77,4.38,9.77,9.77Zm-1.42-62.87c3.74,0,6.79,3.05,6.79,6.79s-3.05,6.79-6.79,6.79-6.79-3.05-6.79-6.79,3.05-6.79,6.79-6.79Z" style="fill:#9d4eba;"/></g></g></svg>